<svg width="233" height="134" viewBox="0 0 233 134" fill="none" xmlns="http://www.w3.org/2000/svg">
<path d="M15.0355 102.46L8.6969 30.01L37.7054 27.4721C43.0354 27.0057 47.5502 27.4069 51.2496 28.6754C54.9491 29.944 57.8178 31.9032 59.8557 34.5529C61.8916 37.179 63.0684 40.308 63.3861 43.94C63.6337 46.7701 63.2854 49.3077 62.3411 51.5529C61.3948 53.7745 59.9909 55.6559 58.1295 57.1971C56.2897 58.7127 54.1327 59.8639 51.6587 60.6507L51.7206 61.3582C54.4903 61.2347 57.1409 61.787 59.6723 63.0152C62.2273 64.2413 64.373 66.0855 66.1094 68.5477C67.8437 70.9863 68.8666 73.9862 69.1782 77.5474C69.5145 81.3916 68.8596 84.9067 67.2133 88.0926C65.5887 91.2529 63.0013 93.8676 59.4513 95.9367C55.9013 98.0059 51.4141 99.2778 45.9897 99.7524L15.0355 102.46ZM29.2578 88.5972L41.7456 87.5046C46.0143 87.1312 49.0562 86.0451 50.8714 84.2466C52.6844 82.4244 53.4713 80.1455 53.2319 77.4097C53.0565 75.4051 52.4183 73.6785 51.3172 72.2302C50.2162 70.7818 48.7313 69.6997 46.8625 68.9839C45.0174 68.2661 42.8684 68.0144 40.4157 68.229L27.5741 69.3525L29.2578 88.5972ZM26.6672 58.9873L38.023 57.9938C40.122 57.8101 41.9532 57.2816 43.5165 56.4081C45.1014 55.509 46.3057 54.3342 47.1293 52.8838C47.9766 51.4313 48.3167 49.7499 48.1496 47.8396C47.9205 45.2217 46.8043 43.1925 44.8008 41.7517C42.821 40.309 40.133 39.7361 36.7368 40.0332L25.0981 41.0515L26.6672 58.9873Z" fill="#1E3A5F"/>
<path d="M85.321 103V30.2727H114.014C119.507 30.2727 124.194 31.2552 128.077 33.2202C131.983 35.1615 134.954 37.9195 136.99 41.4943C139.05 45.0455 140.08 49.224 140.08 54.0298C140.08 58.8594 139.038 63.0142 136.955 66.4943C134.871 69.9508 131.853 72.6023 127.899 74.4489C123.969 76.2955 119.211 77.2188 113.624 77.2188H94.4119V64.8608H111.138C114.073 64.8608 116.512 64.4583 118.453 63.6534C120.394 62.8485 121.839 61.6411 122.786 60.0312C123.756 58.4214 124.241 56.4209 124.241 54.0298C124.241 51.6151 123.756 49.5791 122.786 47.9219C121.839 46.2647 120.383 45.0099 118.418 44.1577C116.476 43.2817 114.026 42.8438 111.067 42.8438H100.697V103H85.321ZM124.597 69.9034L142.672 103H125.697L108.013 69.9034H124.597Z" fill="#1E3A5F"/>
<path d="M168.046 104.655L151.632 103.219L182.981 32.9564L202.721 34.6835L221.358 109.319L204.944 107.883L191.686 50.4008L191.12 50.3513L168.046 104.655ZM169.512 76.0872L208.284 79.4794L207.238 91.4366L168.466 88.0444L169.512 76.0872Z" fill="#1E3A5F"/>
<path d="M49 80C51.2091 80 53 78.2091 53 76C53 73.7909 51.2091 72 49 72C46.7909 72 45 73.7909 45 76C45 78.2091 46.7909 80 49 80Z" fill="#FF9900" stroke="#FF9900" stroke-width="2"/>
<path d="M129 60C131.209 60 133 58.2091 133 56C133 53.7909 131.209 52 129 52C126.791 52 125 53.7909 125 56C125 58.2091 126.791 60 129 60Z" fill="#FF9900" stroke="#FF9900" stroke-width="2"/>
<path d="M209 100C211.209 100 213 98.2091 213 96C213 93.7909 211.209 92 209 92C206.791 92 205 93.7909 205 96C205 98.2091 206.791 100 209 100Z" fill="#FF9900" stroke="#FF9900" stroke-width="2"/>
<path d="M49 76L129 56" stroke="#FF9900" stroke-width="2"/>
<path d="M129 56L209 96" stroke="#FF9900" stroke-width="2"/>
</svg>
